<mxfile host="app.diagrams.net" modified="2022-01-06T02:58:59.476Z" agent="5.0 (Macintosh; Intel Mac OS X 10_15_7) AppleWebKit/537.36 (KHTML, like Gecko) Chrome/96.0.4664.110 Safari/537.36" etag="q1q9w6o7O0Y_thBL_CHj" version="16.1.2" type="github">
  <diagram id="zbI2m9qwPM7i-162WsMr" name="Page-1">
    <mxGraphModel dx="946" dy="500" grid="1" gridSize="10" guides="1" tooltips="1" connect="1" arrows="1" fold="1" page="1" pageScale="1" pageWidth="827" pageHeight="1169" math="0" shadow="0">
      <root>
        <mxCell id="0" />
        <mxCell id="1" parent="0" />
        <mxCell id="dJGsxwTj0P6BNTw4QNRo-1" value="" style="shape=flexArrow;endArrow=classic;html=1;rounded=0;" edge="1" parent="1">
          <mxGeometry width="50" height="50" relative="1" as="geometry">
            <mxPoint x="100" y="297" as="sourcePoint" />
            <mxPoint x="200" y="297" as="targetPoint" />
          </mxGeometry>
        </mxCell>
        <mxCell id="dJGsxwTj0P6BNTw4QNRo-2" value="流量" style="edgeLabel;html=1;align=center;verticalAlign=middle;resizable=0;points=[];" vertex="1" connectable="0" parent="dJGsxwTj0P6BNTw4QNRo-1">
          <mxGeometry x="-0.3" y="7" relative="1" as="geometry">
            <mxPoint as="offset" />
          </mxGeometry>
        </mxCell>
        <mxCell id="dJGsxwTj0P6BNTw4QNRo-4" value="分流器" style="rounded=0;whiteSpace=wrap;html=1;" vertex="1" parent="1">
          <mxGeometry x="200" y="270" width="120" height="60" as="geometry" />
        </mxCell>
        <mxCell id="dJGsxwTj0P6BNTw4QNRo-6" value="" style="rounded=0;whiteSpace=wrap;html=1;" vertex="1" parent="1">
          <mxGeometry x="390" y="120" width="420" height="360" as="geometry" />
        </mxCell>
        <mxCell id="dJGsxwTj0P6BNTw4QNRo-7" value="" style="rounded=0;whiteSpace=wrap;html=1;" vertex="1" parent="1">
          <mxGeometry x="414" y="130" width="366" height="160" as="geometry" />
        </mxCell>
        <mxCell id="dJGsxwTj0P6BNTw4QNRo-8" value="" style="rounded=0;whiteSpace=wrap;html=1;dashed=1;" vertex="1" parent="1">
          <mxGeometry x="430" y="170" width="330" height="30" as="geometry" />
        </mxCell>
        <mxCell id="dJGsxwTj0P6BNTw4QNRo-9" value="" style="rounded=0;whiteSpace=wrap;html=1;dashed=1;" vertex="1" parent="1">
          <mxGeometry x="430" y="210" width="330" height="30" as="geometry" />
        </mxCell>
        <mxCell id="dJGsxwTj0P6BNTw4QNRo-10" value="" style="rounded=0;whiteSpace=wrap;html=1;dashed=1;" vertex="1" parent="1">
          <mxGeometry x="430" y="250" width="330" height="30" as="geometry" />
        </mxCell>
        <mxCell id="dJGsxwTj0P6BNTw4QNRo-16" style="rounded=0;orthogonalLoop=1;jettySize=auto;html=1;exitX=1;exitY=0.5;exitDx=0;exitDy=0;entryX=0;entryY=0.5;entryDx=0;entryDy=0;" edge="1" parent="1" source="dJGsxwTj0P6BNTw4QNRo-4" target="dJGsxwTj0P6BNTw4QNRo-7">
          <mxGeometry relative="1" as="geometry" />
        </mxCell>
      </root>
    </mxGraphModel>
  </diagram>
</mxfile>
